<svg preserveAspectRatio="xMidYMid meet" viewBox="262.55199999999996 312.224 1271.9579999999999 244.812" xmlns="http://www.w3.org/2000/svg" version="1.0" style="max-height: 500px" width="1271.9579999999999" height="244.812">

<g stroke="none" fill="#000000" transform="translate(0.000000,887.000000) scale(0.100000,-0.100000)">
<path d="M3661 5265 c-197 -43 -339 -122 -471 -262 -139 -146 -190 -265 -198&#10;-458 -5 -142 8 -208 67 -330 52 -109 118 -193 207 -265 154 -123 329 -183 539&#10;-183 252 0 455 82 626 253 164 164 237 362 217 596 -27 322 -304 598 -658 654&#10;-89 14 -252 11 -329 -5z m294 -47 c209 -60 384 -216 485 -430 58 -125 73 -198&#10;68 -348 -4 -102 -9 -139 -31 -198 -92 -260 -304 -423 -572 -439 -286 -17 -579&#10;178 -710 474 -61 137 -81 313 -50 457 46 218 221 412 432 480 117 38 255 40&#10;378 4z"/>
<path d="M3820 4690 c-2 -72 -66 -146 -135 -157 -37 -6 -39 -23 -2 -23 56 0&#10;121 -70 133 -143 l7 -38 16 49 c29 84 46 102 126 133 l30 12 -30 7 c-68 15&#10;-103 51 -128 135 -11 35 -16 42 -17 25z"/>
<path d="M8568 5261 c-102 -18 -134 -31 -79 -31 23 0 41 -9 62 -29 l29 -29 0&#10;-647 c0 -733 4 -694 -78 -719 -45 -14 -38 -15 143 -14 146 0 180 2 147 10 -32&#10;7 -48 17 -63 41 -18 30 -19 53 -19 332 0 287 1 302 21 335 35 59 71 91 134&#10;121 146 70 306 14 347 -123 9 -31 13 -127 13 -345 l0 -301 -24 -26 c-13 -14&#10;-42 -30 -65 -35 -30 -6 11 -9 154 -9 167 0 189 1 151 11 -28 8 -52 22 -65 40&#10;-20 27 -21 44 -26 355 -6 374 -7 381 -91 456 -132 118 -360 91 -498 -60 l-51&#10;-56 0 371 0 371 -22 -1 c-13 -1 -67 -9 -120 -18z"/>
<path d="M11210 5265 c-292 -60 -506 -247 -600 -525 -31 -91 -38 -268 -16&#10;-376 32 -160 94 -275 211 -391 58 -56 94 -82 176 -122 130 -64 217 -84 374&#10;-84 179 -1 335 45 488 142 l47 31 0 247 c0 290 3 301 87 327 45 14 34 15 -192&#10;14 -217 0 -234 -1 -175 -12 138 -26 140 -30 140 -351 l0 -245 -62 -40 c-162&#10;-105 -384 -114 -568 -24 -56 28 -96 58 -156 118 -93 93 -142 175 -187 309 -30&#10;88 -31 100 -32 257 0 146 3 174 23 240 36 113 88 203 165 286 58 63 85 82 161&#10;119 112 54 188 69 309 63 209 -12 346 -106 410 -283 l26 -70 0 151 1 151 -88&#10;27 c-177 54 -396 71 -542 41z"/>
<path d="M12178 5261 c-101 -18 -135 -31 -80 -31 18 0 42 -10 59 -24 l28 -24&#10;3 -639 c2 -428 0 -650 -8 -674 -10 -36 -40 -59 -95 -72 -11 -3 66 -5 170 -5&#10;163 0 184 1 146 11 -26 7 -52 22 -63 38 -18 24 -19 53 -18 732 l0 707 -22 -1&#10;c-13 -1 -67 -9 -120 -18z"/>
<path d="M7312 5123 c-6 -76 -9 -139 -7 -141 2 -2 11 20 20 50 26 90 65 141&#10;130 173 53 27 65 28 193 29 l137 1 3 -630 c2 -346 0 -654 -3 -683 -9 -70 -40&#10;-107 -102 -120 -38 -7 0 -10 172 -10 198 -1 215 1 172 12 -68 18 -86 40 -98&#10;117 -6 39 -9 305 -7 689 l3 625 95 3 c120 4 214 -12 263 -44 46 -30 91 -99&#10;108 -165 12 -48 34 -72 24 -26 -4 19 -25 227 -25 249 0 4 -240 8 -533 8 l-534&#10;0 -11 -137z"/>
<path d="M6124 4715 c-87 -19 -159 -59 -225 -124 -254 -255 -155 -711 175&#10;-806 43 -13 85 -16 160 -13 88 3 109 8 167 36 37 18 88 53 117 83 51 50 122&#10;173 108 186 -7 7 -4 11 -45 -54 -67 -107 -167 -170 -289 -180 -165 -14 -298&#10;75 -367 245 -25 61 -45 182 -31 182 7 0 646 142 699 155 22 6 24 10 17 34 -25&#10;88 -105 182 -186 221 -52 24 -162 50 -209 49 -16 0 -57 -7 -91 -14z m161 -30&#10;c65 -19 139 -92 165 -163 34 -91 50 -81 -232 -149 -139 -34 -270 -65 -290 -69&#10;l-38 -6 0 38 c1 157 109 315 239 350 62 17 99 17 156 -1z"/>
<path d="M6856 4700 c-114 -25 -117 -26 -80 -35 22 -6 46 -22 58 -38 20 -28&#10;21 -39 21 -392 0 -353 -1 -364 -21 -392 -13 -18 -37 -32 -65 -40 -38 -10 -16&#10;-11 151 -11 167 0 189 1 151 11 -28 8 -52 22 -65 40 -20 27 -21 42 -24 309 -3&#10;314 1 343 63 415 81 95 185 98 264 8 27 -31 32 -34 38 -18 3 10 17 42 30 72&#10;12 29 23 54 23 56 0 1 -19 11 -42 21 -61 27 -140 24 -203 -8 -53 -27 -127&#10;-100 -147 -143 -20 -44 -27 -27 -30 73 l-3 97 -119 -25z"/>
<path d="M9931 4720 c-156 -33 -295 -157 -352 -316 -32 -86 -32 -245 0 -333&#10;49 -139 146 -238 277 -281 55 -19 82 -22 167 -18 135 6 197 30 281 109 73 67&#10;151 200 119 199 -5 0 -21 -23 -38 -51 -39 -67 -103 -124 -173 -157 -49 -23&#10;-70 -27 -147 -27 -82 0 -97 3 -157 33 -80 39 -129 92 -174 186 -32 67 -59 192&#10;-44 201 4 3 68 18 141 34 231 51 584 133 588 136 6 6 -49 118 -75 152 -33 44&#10;-103 90 -170 113 -66 23 -182 32 -243 20z m156 -35 c64 -19 126 -78 160 -151&#10;40 -88 37 -92 -107 -130 -197 -52 -449 -108 -455 -102 -10 9 12 120 36 183 30&#10;81 124 177 195 198 64 20 109 20 171 2z"/>
<path d="M12900 4720 c-61 -11 -125 -35 -177 -66 l-43 -25 0 -84 c0 -47 3 -85&#10;8 -85 4 1 18 24 31 53 76 161 238 230 346 145 48 -38 65 -90 65 -207 l0 -103&#10;-27 7 c-90 25 -215 22 -302 -6 -196 -64 -303 -223 -257 -382 32 -108 111 -178&#10;224 -196 109 -17 220 22 308 109 l51 50 7 -39 c13 -84 49 -121 118 -121 36 0&#10;99 27 138 59 30 24 16 27 -27 6 -35 -18 -75 -8 -89 22 -5 10 -11 169 -14 353&#10;-5 328 -6 336 -29 383 -26 54 -84 102 -140 117 -57 15 -142 20 -191 10z m191&#10;-382 l39 -11 0 -173 0 -172 -33 -44 c-101 -133 -302 -138 -392 -10 -26 38 -30&#10;54 -33 121 -3 64 0 87 18 130 28 63 93 123 164 150 59 23 177 28 237 9z"/>
<path d="M13743 4720 c-152 -32 -232 -154 -191 -292 16 -54 71 -108 191 -185&#10;201 -130 232 -169 225 -278 -3 -50 -10 -70 -32 -100 -70 -91 -207 -99 -296&#10;-18 -42 37 -100 142 -100 180 0 12 -4 23 -10 23 -6 0 -10 -45 -10 -115 l0&#10;-114 81 -26 c97 -30 228 -34 302 -9 64 22 141 93 163 151 21 55 23 132 5 186&#10;-17 51 -91 121 -198 186 -183 113 -223 156 -223 241 0 81 52 136 140 147 101&#10;12 184 -46 225 -158 l24 -64 0 106 1 107 -62 15 c-83 21 -183 28 -235 17z"/>
<path d="M14430 4717 c-126 -29 -200 -111 -200 -225 0 -36 8 -61 33 -102 28&#10;-48 51 -68 181 -155 161 -108 198 -145 217 -215 47 -182 -186 -305 -331 -173&#10;-42 37 -100 142 -100 180 0 12 -5 23 -11 23 -7 0 -9 -9 -5 -22 3 -13 6 -64 6&#10;-115 l0 -92 58 -22 c85 -33 247 -38 322 -10 124 46 197 171 171 291 -17 79&#10;-59 131 -159 196 -258 168 -264 173 -270 263 -2 44 1 63 18 89 39 62 145 90&#10;223 57 47 -19 107 -90 128 -151 l17 -49 1 101 1 102 -65 16 c-92 23 -171 28&#10;-235 13z"/>
<path d="M4808 4683 c24 -8 53 -28 66 -46 20 -27 309 -671 366 -817 25 -63 41&#10;-62 70 7 117 284 336 775 359 803 16 19 48 43 72 52 l44 17 -150 0 c-146 0&#10;-149 -1 -103 -15 91 -28 89 -61 -14 -304 -42 -96 -99 -231 -128 -300 -29 -69&#10;-56 -129 -60 -133 -7 -8 -272 603 -283 653 -10 42 13 73 63 86 39 11 20 12&#10;-150 12 -186 0 -193 0 -152 -15z"/>
</g>
</svg>